<mxfile host="Electron" modified="2024-05-17T02:12:42.632Z" agent="Mozilla/5.0 (Macintosh; Intel Mac OS X 10_15_7) AppleWebKit/537.36 (KHTML, like Gecko) draw.io/24.4.0 Chrome/120.0.6099.109 Electron/28.1.0 Safari/537.36" etag="p1pB7sxPdzdwZIbM23z7" version="24.4.0" type="device">
  <diagram name="PÃ¡gina-1" id="0MKF2V8cCjxxOLZMF5Yj">
    <mxGraphModel dx="1231" dy="792" grid="1" gridSize="10" guides="1" tooltips="1" connect="1" arrows="1" fold="1" page="1" pageScale="1" pageWidth="827" pageHeight="1169" math="1" shadow="0">
      <root>
        <mxCell id="0" />
        <mxCell id="1" parent="0" />
        <mxCell id="MuVFD5ngkbPdT-urxYMW-1" value="" style="endArrow=classic;html=1;rounded=0;" parent="1" edge="1">
          <mxGeometry width="50" height="50" relative="1" as="geometry">
            <mxPoint x="200" y="280" as="sourcePoint" />
            <mxPoint x="640" y="280" as="targetPoint" />
          </mxGeometry>
        </mxCell>
        <mxCell id="MuVFD5ngkbPdT-urxYMW-10" value="&lt;font style=&quot;font-size: 14px;&quot;&gt;$$Re\{z\}$$&lt;/font&gt;" style="text;html=1;align=center;verticalAlign=middle;whiteSpace=wrap;rounded=0;" parent="1" vertex="1">
          <mxGeometry x="640" y="260" width="60" height="40" as="geometry" />
        </mxCell>
        <mxCell id="MuVFD5ngkbPdT-urxYMW-11" style="edgeStyle=orthogonalEdgeStyle;rounded=0;orthogonalLoop=1;jettySize=auto;html=1;exitX=1;exitY=1;exitDx=0;exitDy=0;" parent="1" source="MuVFD5ngkbPdT-urxYMW-10" target="MuVFD5ngkbPdT-urxYMW-10" edge="1">
          <mxGeometry relative="1" as="geometry" />
        </mxCell>
        <mxCell id="MuVFD5ngkbPdT-urxYMW-12" value="&lt;font style=&quot;font-size: 14px;&quot;&gt;$$Im\{z\}$$&lt;/font&gt;" style="text;html=1;align=center;verticalAlign=middle;whiteSpace=wrap;rounded=0;" parent="1" vertex="1">
          <mxGeometry x="400" y="50" width="80" height="40" as="geometry" />
        </mxCell>
        <mxCell id="MuVFD5ngkbPdT-urxYMW-13" value="" style="endArrow=classic;html=1;rounded=0;" parent="1" target="MuVFD5ngkbPdT-urxYMW-12" edge="1">
          <mxGeometry width="50" height="50" relative="1" as="geometry">
            <mxPoint x="440" y="440" as="sourcePoint" />
            <mxPoint x="440" y="410" as="targetPoint" />
          </mxGeometry>
        </mxCell>
        <mxCell id="MuVFD5ngkbPdT-urxYMW-15" value="" style="edgeStyle=none;orthogonalLoop=1;jettySize=auto;html=1;rounded=0;" parent="1" edge="1">
          <mxGeometry width="80" relative="1" as="geometry">
            <mxPoint x="410" y="440" as="sourcePoint" />
            <mxPoint x="490" y="440" as="targetPoint" />
            <Array as="points" />
          </mxGeometry>
        </mxCell>
      </root>
    </mxGraphModel>
  </diagram>
</mxfile>
